<?xml version="1.0" encoding="utf-8"?>
<!-- Generator: Adobe Illustrator 22.1.0, SVG Export Plug-In . SVG Version: 6.00 Build 0)  -->
<svg version="1.1" id="图层_1" xmlns="http://www.w3.org/2000/svg" xmlns:xlink="http://www.w3.org/1999/xlink" x="0px" y="0px"
	 viewBox="0 0 16 16" style="enable-background:new 0 0 16 16;" xml:space="preserve">
<style type="text/css">
	.st0{fill:#9E9E9E;}
</style>
<path class="st0" d="M2,7.8c0-0.1,0-0.3,0.2-0.5l2.9-3.6C5.5,3.3,6.1,3,6.5,3h6.7C13.6,3,14,3.4,14,4v8.3c0,0.4-0.4,0.7-0.8,0.7H2.8
	C2.4,13,2,12.7,2,12.3V7.9C2,7.9,2,7.8,2,7.8z M13.2,7.2l0-3.3H6.6c-0.2,0-0.6,0.2-0.8,0.5L3.6,7.2H13.2z M8.9,9
	c0,0.5,0.4,0.8,0.8,0.8h1.8c0.5,0,0.8-0.4,0.8-0.8l0-1H8.9L8.9,9z"/>
</svg>
